<?xml version="1.0" standalone="no"?>
<!DOCTYPE svg PUBLIC "-//W3C//DTD SVG 20010904//EN"
 "http://www.w3.org/TR/2001/REC-SVG-20010904/DTD/svg10.dtd">
<svg version="1.0" xmlns="http://www.w3.org/2000/svg"
 width="698.000000pt" height="698.000000pt" viewBox="0 0 698.000000 698.000000"
 preserveAspectRatio="xMidYMid meet">
<metadata>
Created by potrace 1.14, written by Peter Selinger 2001-2017
</metadata>
<g transform="translate(0.000000,698.000000) scale(0.100000,-0.100000)"
fill="#000000" stroke="none">
<path d="M2145 3503 l0 -458 73 -3 72 -3 1 28 c1 15 0 39 -1 53 -2 24 -1 24
37 -12 145 -140 374 -91 465 101 29 59 32 76 32 161 1 86 -2 101 -30 160 -59
125 -133 175 -259 175 -69 0 -86 -4 -127 -27 -25 -16 -57 -42 -70 -58 l-24
-31 0 183 0 183 -84 3 -85 3 0 -458z m385 56 c74 -24 123 -99 123 -191 0 -69
-24 -120 -77 -162 -70 -57 -190 -36 -242 42 -18 26 -21 45 -20 115 2 88 14
121 60 160 48 42 100 53 156 36z"/>
<path d="M5592 3780 c2 -99 1 -180 -3 -180 -3 0 -20 15 -38 34 -78 81 -217 99
-314 42 -188 -110 -218 -401 -58 -565 110 -112 316 -108 415 10 l26 31 0 -27
c0 -56 47 -95 114 -95 62 0 66 5 66 79 0 54 -3 68 -19 78 -18 11 -19 29 -20
360 0 191 0 363 0 381 l-1 32 -85 0 -86 0 3 -180z m-92 -236 c18 -10 46 -35
62 -56 28 -34 30 -41 30 -127 -1 -95 -9 -117 -58 -154 -88 -66 -214 -32 -264
71 -28 57 -21 156 14 209 50 76 143 100 216 57z"/>
<path d="M5966 3883 c1 -43 2 -81 3 -85 2 -14 161 -9 162 5 4 62 4 134 1 145
-3 8 -29 12 -86 12 l-82 0 2 -77z"/>
<path d="M6 3930 c-2 -3 76 -204 173 -447 l176 -443 76 0 76 0 27 68 c15 37
31 74 35 82 5 8 25 58 46 110 21 52 41 98 44 102 3 4 40 -75 82 -175 l76 -182
78 0 78 0 63 160 c35 88 68 169 72 180 14 32 68 166 87 215 9 25 22 59 30 75
46 107 102 255 96 256 -33 7 -174 2 -181 -6 -5 -6 -61 -154 -125 -330 -64
-176 -120 -326 -124 -333 -5 -9 -27 34 -61 119 -29 73 -53 138 -53 144 0 11
130 360 144 388 10 17 3 19 -71 19 -11 0 -35 0 -53 -1 l-32 -1 -50 -144 c-27
-80 -53 -140 -56 -133 -4 7 -26 68 -49 137 -23 69 -45 128 -49 132 -7 8 -148
15 -155 7 -2 -2 29 -94 71 -204 l74 -200 -53 -137 c-47 -125 -68 -161 -68
-125 -1 15 -236 656 -245 665 -8 8 -175 10 -179 2z"/>
<path d="M3161 3920 c-125 -45 -191 -134 -191 -259 1 -132 61 -188 268 -248
168 -49 227 -89 214 -148 -21 -99 -202 -104 -381 -9 -36 18 -66 33 -67 31 -1
-1 -18 -34 -37 -73 l-36 -71 42 -24 c109 -62 244 -94 366 -86 201 13 304 107
297 273 -6 140 -68 194 -301 259 -157 44 -184 62 -185 126 0 41 38 88 74 90
91 6 119 4 179 -16 37 -12 81 -31 97 -43 l29 -22 27 48 c15 26 33 57 41 69 12
20 11 24 -9 37 -120 78 -309 107 -427 66z"/>
<path d="M3822 3911 c-5 -3 -8 -52 -8 -108 l1 -103 -42 0 c-47 0 -45 3 -45
-90 0 -11 0 -24 1 -29 1 -6 20 -11 43 -13 l42 -3 1 -215 c1 -194 3 -218 20
-248 42 -70 146 -90 269 -51 l67 20 -7 37 c-4 20 -10 44 -14 52 -8 15 -10 23
-10 40 0 5 -18 3 -40 -5 -45 -16 -77 -13 -99 10 -12 12 -16 48 -16 190 l-2
175 69 0 c37 0 68 3 69 8 1 11 1 95 0 109 -1 8 -25 13 -68 15 l-68 3 0 103 c1
56 -2 103 -5 103 -20 5 -152 4 -158 0z"/>
<path d="M1532 3690 c-238 -85 -299 -405 -109 -575 109 -99 291 -116 423 -40
47 27 117 101 112 117 -3 7 -32 19 -67 29 l-63 18 -33 -34 c-19 -18 -50 -38
-71 -45 -42 -14 -117 -7 -150 15 -33 21 -71 75 -78 111 l-7 30 256 0 c164 -1
255 2 256 9 10 83 -15 183 -63 253 -34 49 -113 104 -173 121 -62 17 -173 13
-233 -9z m215 -125 c33 -19 71 -74 79 -113 l6 -28 -171 -1 c-168 0 -171 0
-171 21 0 22 30 78 56 104 41 41 146 50 201 17z"/>
<path d="M6515 3697 c-93 -31 -160 -92 -204 -187 -21 -45 -25 -70 -26 -140 0
-77 4 -93 33 -152 60 -122 169 -190 305 -189 209 0 348 136 349 341 1 141 -67
250 -192 309 -65 30 -198 39 -265 18z m180 -147 c160 -78 128 -352 -44 -376
-53 -8 -100 9 -139 49 -40 41 -53 78 -53 148 -1 88 38 151 111 183 47 21 76
20 125 -4z"/>
<path d="M4290 3476 c0 -123 5 -247 10 -277 21 -107 91 -169 193 -170 95 -2
201 40 242 95 25 34 35 33 35 -3 0 -62 65 -100 145 -85 l35 6 0 67 c0 55 -3
68 -20 79 -19 12 -20 23 -20 262 l0 250 -85 0 -85 0 0 -205 c0 -126 -4 -213
-11 -227 -31 -65 -139 -113 -199 -88 -61 25 -65 42 -68 293 l-3 227 -85 0 -84
0 0 -224z"/>
<path d="M5965 3373 l0 -328 85 -3 85 -3 0 331 0 330 -85 0 -85 0 0 -327z"/>
</g>
</svg>
